<?xml version="1.0" encoding="UTF-8"?>
<svg id="Layer_2" data-name="Layer 2" xmlns="http://www.w3.org/2000/svg" viewBox="0 0 1859.47 1551.8">
  <defs>
    <style>
      .cls-1 {
        fill: #e55e09;
      }
    </style>
  </defs>
  <g id="Layer_1-2" data-name="Layer 1">
    <path class="cls-1" d="M1853.95,862.53c-11.47-103.9-98.19-260.63-143.29-360.59-1.61-3.56-6.76-.07-8.24-3.34-9.76-21.64-11.37-52.94-26.97-76.72-39.38-59.99-172.63-103.04-236.03-135.12-38.99-14.14-101.49,116.78-102.58,137.09-.11,2.15,19.82,30.15,29.55,24.43,7.13-4.19,44.46-103.37,51.94-102.86,9.4,36.57-70.2,126.31,2.52,128.09l45.52-109.5c6.34,28.26-34.28,97.42-23.94,120.08,2.67,5.84,48.52,24.66,55.66,24.13,7.78-.59,37.91-20.76,32.02-29.65-16.36-24.68-38.14,9.76-57.05,10.91,3.06-15.75,18.21-10.2,26.42-28.27,6.58-14.46,4.44-31.4,8.3-46.43,20.91,49.51,82.1,107.7,133.39,58.71,1.38,17.44-17.8,25.98-18.12,43.33-.2,10.54,9.28,14.93,9.49,15.82,11.44,47.91,25.88,95.2,35.32,143.69-22.22-44.09-45.51-98.66-88.04-125.43,56.58,130.51-31.47,230.78,56.18,352.86,19.97,27.82,44.06,43.81,69.26,66.14l-10.22,2.15c-50.74-26.97-86.97-19.7-112.6-78.15-9.44-21.53-16.65-73.67-28.93-83.76-45.48-37.36-133.86-31.45-182.58-3.08l-39.34,45.42c2.99-20.57,15.26-40.4,31.67-52.36-41.47-52.04-118.1-76.16-184.38-58.95-30.95,8.04-33.52,23.62-55.86,34.9-40.83,20.61-80.4,10.79-122.4,1.71,7.06,10.83,36.85,15.16,49.41,15.94,26.13,1.63,50.29-6,71.76-5.07,11.92.52,56.44,12.2,62.97,21.12-79.37,6.45-173.01,5.07-232.24,60.18-.74-12.17-42.9-43.73-42.63-46.88,1.16-13.25,20.47.73-2.77-30.69-26.87-36.34-130.53-124.33-141.35-145.39-19.46-37.91.94-212.97-.01-264.26,27.49,102.79,111.09,156.86,200.08,202.84,20.66-28.51,58.26-53.19,91.71-67.17,10.66-4.45,44.05-17.32,54-18.04,22.93-1.66,38.67,21.84,30.6-7.03l-16.08.18c65.95-28.8,22.94-45.73,4.23-73.66-37.55-56.08-46.08-97.44,24.64-125.66-23.36-86.08-49.5-191-126.34-245.04,21.18,30,48.27,55.22,62.69,89.44-.46,7.55-64.5.78-70.13-1.96-7.27-3.53-44.45-49.69-61.97-60.81-38-24.13-167.07-64.17-206.94-49.54-2.99,1.09-15.05,6.67-13.2,12.11,9.58,2.93,45.15-12.25,50.69-7.96,4.66,3.61-18.93,10.64,4.01,10.64h41.37l-5.34,10.68h42.71c-10.14,17.37,41.15,11.14,42.67,13.34,5.28,7.61-10.08,17.25,26.04,14.37l70.06,63.02c-20.26-6.12-58.93,9.03-75.45,4.81-5.52-1.41-54.25-39.52-70.76-46.73-62.41-27.3-208.95-55.26-246.12,17.9,19.94-1.14,38.26-47.17,43.9-16.07l33.46-18.61-5.31,15.98,44.04-16.01c11.74.15-9.31,17.72-9.34,18.68l52.08-13.34,3.95,3.99-10.65,12.02,53.36-5.29c3.19,14.38-5.05,7.78-10.66,16h52.05c13.36,0-.73,7.62,3.99,12.02,3.43,3.2,51.47,16.6,50.76,21.34-12.17,8.15-51.16,9.41-56.9,23.44-4.08,16.87,9.28,70.2,4.77,82.12-1.08,2.84-45.25,35.95-48.01,37.23-1.87.87.09-8.9-6.65-5.29l2.65,10.63c-2.36,2.35-38.64-17.66-39.99-15.99-6.99,8.68,7.91,1.01-12.87,14.05-1.37.85-.19,7.17-.53,7.29-1.39.47-24.49.01-29.34,0l-1.39-5.37-11.95-2.6,2.72,10.64c1.76,1.14,7.93-2.67,10.61-2.67-39.27,26.95-6.34,16.41-.02,48.04-30.06-23.27-84.49-50.17-105.41.01-27.46,65.85,36.41,150.33,105.48,145.51-18.85,58.33-61.32,5.22-90.77-9.37-3.2,38-2.33,129.29-22.56,160.27-13.81,21.15-116.68,58.28-142.94,71.97l48.04,31.95c-104.82-29.62-211.67-26.08-278.65,69.71-36.02,51.51-46.55,124.2-30.78,184.52.27,1.01,13.18,14.57,10.48,18.03-12.09,15.47-45.01-62.18-46.66-69.34-13.96,15.55-34.1,30.52-47.83,45.61-3.72,4.1-16.61,18.69-17.79,20.24-4.64,6.09-2.42,12.27-3.22,13.41-54.77,78.66-91.31,183.19-111.05,276.76,10.15,17.92,119.4,145.21,129.19,145.71,5.55,1.09,4.42-2.17,3.44-6.11-3.02-12.17-58.74-79.36-68.9-100.01-14.48-29.41-24.19-68.22-1.37-96.67,35.38,73.23,112.72,111.54,180.19,150.8l-98.72-33.37c-10.2,10.13,83.18,94.31,93.71,102.67,14.1,11.2,103.13,72.43,114.37,74.84,32.3,6.91,75.8-3.49,109.5,3.97-36.47-44.4-91.24-80.95-121.22-130.98-16.54-27.59-25.1-65.78-40.65-95.46-25.43-48.53-66.21-87.02-113.02-115.17,16.68,3.05,33.77,6.65,49.48,13.21,58.89,24.6,36.51,68.86,110.68,9.46,50.59-40.52,91.62-112.25,93.38-177.5l-128.08-14.67c94.78-26.95,201.17-65.7,245.61-161.48,8.71-2.13,5.44,10.2,5.03,14.41-7.66,77.9-40.89,62.89,16.36,136.26,62.24,79.78,136.88,115.02,238.88,113.64,167.53-2.26,179.48-66.8,145.41-218.94,40.87,35.23,36.59,155.32,73.36,181.49,28.72,20.45,122.73,30.61,156.86,23.38,97.09-20.55,105.72-180.51,106.08-258.25l42.58,70.72c62.2,66.54,180.86,50.81,250.99,4.01-30.4,70.84-107.17,110.8-181.48,117.44,10.31,11.26,43.97,20.04,60.86,23.19,50.03,9.34,93.26,9.31,141.9-5.94,17.66-5.54,52.17-28.63,62.96-30.44,24.56-4.12,69.85,3.75,100.59-.86,19.83-2.98,75.88-18.61,81.5-41.26-8.37-47.78-.29-98.11-5.52-145.53ZM1016.66,364.04c-.98.67,1.5,12.98-14.99,15.95-26.09,4.7-15.86-17.57-17.09-18.6-2.38-1.99-52.43,13.77-61.36,1.3,23.48-1.18,83.02-32.57,103.37-16.6,2.79,2.18,7.02,15.18,5.96,19.09-2.4,8.86-12.24-3.65-15.89-1.14ZM1030.95,464.7c2.69-9.84,9.52-18.79,20.37-23.22-7.11,11.37-9.7,21.1-8.7,30,1.37,12.23,9.51,22.88,22.04,33.99-28.12,1.77-39.05-21.25-33.71-40.77ZM1123.37,478.85c-9,23.61-39.09,17.33-58.69,21.3,5-25.83,38.51-27.17,58.69-21.3ZM962.1,286.83c19.95-3.56,128.2,5.32,99.95,41.25-16.84,21.42-63.64-6.4-86.77-6.67-21.92-.26-50.33,13.65-70.73,21.28,1.28-20.93,37.64-52.32,57.55-55.86ZM690.02,443.63c-42.6-31.62.97-44.89,3.27-57.28,1.15-6.23-23.06-27.37-27.73-27.45-1.3,0-14.61,19.87-14.61,21.16v42.7c-25.17-30.82-5.41-105,42.54-67.9,24.55,19,12.26,43.07,16.76,63.31,2.49,11.24,40.79,70.75-20.23,25.46ZM685.66,1074.07c5.68-.83,41.22,3.79,42.68,5.37,12.91,13.96-38.79,6.32-42.68-5.37ZM589.57,753.77l192.15,29.31-5.37-66.69c8.19,12.58,27.5,70.19,35.42,76.69,12.2,10.02,73.79,14.81,74.04,48.72-99.52-25.56-205.71-36.34-296.24-88.03ZM1777.33,983.25c25.18-68.93,12.06-145.77.03-216.17,25.15,52.46,73.39,188.81-.03,216.17Z"/>
    <path class="cls-1" d="M1195.44,1178.14c-2.01,34.1-16.78,64.18-36.64,90.78-6.83,2.25-104.25-45.06-130.68-42.22-12.16,1.31-6.64,24.02-27.54,14.15-4.68-2.21-4.2-10.51-12.05-12.15-28.81-5.99-144.32,21.79-173.9,37.01-47.02,24.2-39.18,51.26-48.89,99.27-45.98,1.12-91.84-38.81-101.42-82.75,2.48-2.39,57.82,18.63,66.68,8.04-50.73-26.3-106.7-59.74-122.79-118.78,26.93,5.11,51.29,18.61,79.12,22.31,32.73,4.35,62.84,1.56,95.46.13,2.81-.12-.37,5.82,4.24,5.51.28-.02-.76-5.13,1.8-5.34,47.26-3.91,93.95-10.31,139.73-22.63,13.35-3.59,63.95-27.54,67.59-27.44,4.61.13,35.27,14.66,44.49,16.76,50.43,11.48,102.54,24.52,154.8,17.35Z"/>
    <path class="cls-1" d="M967.65,1374.72c-28.97,31.4-129.99,28.38-142.94-19.37-13.25-48.87,15.7-74.61,58.42-87.83,16.39-5.07,77.27-14.74,90.8-8,19.39,9.66,11.55,95.86-6.29,115.2Z"/>
    <path class="cls-1" d="M833.09,1419c5.5-5.42,124.84-11.6,131.5-6.1,17.12,14.11,10.13,95.99-4.02,113.56-19.15,23.78-82.78,12.38-105.41-4.03-27.39-19.87-29.34-73.16-22.07-103.43Z"/>
    <path class="cls-1" d="M1093.04,1267.47c45.76,12.22,59.82,57.88,35.59,97.44-.17.28-5.04-2.86-5.22-2.63-18.99,24.21-44.79,28.87-78.52,23.8-34.5-5.19-31.08-16.08-31.03-46.56.11-67.45,9.84-90.57,79.18-72.04Z"/>
    <path class="cls-1" d="M1103.61,1481.36c-11.12,28.43-35.89,49.2-67.02,51.71-6.65.54-28.01,1.73-32.06-2.53-7.65-8.04.12-95.13,7.63-105.99,13.98-20.21,71.22-8.47,94.01-11.74,12.24,6,2.13,56.58-2.56,68.55Z"/>
    <path class="cls-1" d="M1137.82,549.93c37.35,24.69-38.64,13.35-49.82,14.94-12.47,1.78-49.11,17.87-58.06,27.35,20.45-4.8,111.41-28.22,115.05,2.69,5.09,43.24-44.92,23.09-70.84,22.89-9.78,9.1,7.81,10.13-2.75,23.92-33.78,44.11-67.03-32.86-45.91-60.62,14.43-18.96,89.37-46.35,112.33-31.17Z"/>
    <path class="cls-1" d="M1262.16,1156.76c-6.25,73.28-38.62,139.18-68.69,204.89l-32.73,174.16c-2.16-.27-7.64.42-7.98-.04-5.29-6.97,15.63-155.86,19.48-174,10.08-47.41,32.95-86.38,52.91-128.72,6.06-12.85,25.27-69.76,28.95-74.46,2.67-3.41,4.67-1.55,8.05-1.83Z"/>
    <path class="cls-1" d="M453.36,1244.9c4.14,1.26,21.19,33.65,24.21,37.31,41.11,49.76,87.5,76.01,101.11,151.03,2.11,11.66,6.19,35.14,1.49,46.49-15.65,1.64-38.48-90.4-43.19-100.75-2.87-6.32-27.3-24.43-32.84-32.14-22.45-31.23-44.42-63.63-56.09-100.6l5.32-1.34Z"/>
    <path class="cls-1" d="M844.76,178.47c1.67.96-.05,5.73,6.34,1.38l-3.99,5.43c-36.46-4.53-65.7-14.94-102.73-5.44l5.32-10.63-56.03,10.63c18.89-29.36-35.8,8.56-38.69,8.06v-13.36c-29.3,19.92-57.98,25.06-78.74,56.03,1.47-37.72,31.91-54.64,64.16-65.25,58.83-19.36,149.34-18.3,204.35,13.15Z"/>
    <path class="cls-1" d="M1670.54,1114.1c-100.78,65.2-238.75,86.23-338.95,9.29,36.76,4.2,69.72,23.48,106.35,29.18,85.22,13.26,153.58-12.87,232.59-38.48Z"/>
    <path class="cls-1" d="M983.54,42.12c4.39,3.1,65.7,60.55,55.79,65.66C969.9,29.91,885.63,9.26,784.42,1.07c61.36-4.55,147.7,4.75,199.12,41.05Z"/>
    <path class="cls-1" d="M752.37,1489.08l-69.43-98.73c19.03,1.12,69.43,28.18,69.43,48.01v50.71Z"/>
    <path class="cls-1" d="M1360.42,468.78c.8.4,5.31,9.92,11.55,13.69,19.81,11.96,53.36,11.87,54.54,36.57-37.73,13.17-95.6-.69-73.56-50.91,2.51.1,5.05-.55,7.46.65Z"/>
    <path class="cls-1" d="M571.97,1230.44c16.9,19.37,36.46,36.62,54.96,54.42-43.15-5.92-85.94-49.68-85.38-93.39,12.63,10.84,19.72,26.7,30.42,38.97Z"/>
    <path class="cls-1" d="M544.2,542.82c-8.07-11.76,18.98-8.45,23.05-16.79,7-14.32,4.2-53.53,22.27-68.55-4.57,10.36-12.25,73.49-14.78,77.11-5.91,8.46-25.07,16.21-30.54,8.24Z"/>
    <path class="cls-1" d="M1144.72,636.28c4.49,34.67,27.94,70.97,4,104.09l-4-104.09Z"/>
    <path class="cls-1" d="M1155.4,321.35c-7.58,46.04-13.69,14.89-42.66,24,.06-10.02,39.03-27.52,42.66-24Z"/>
    <path class="cls-1" d="M1139.4,372.05v38.7c0,2.65,6.87,5.65-2.61,3.98.37-5.31-23.12-36-21.41-37.31,1.91-1.46,16.66,5.65,24.02-5.37Z"/>
    <path class="cls-1" d="M552.15,388.06c1.97,1.16,7.22,29.72,8.03,34.67-27.61,4.55-18.99-41.12-8.03-34.67Z"/>
    <path class="cls-1" d="M516.91,467.41c.83.14,3.09-14.28,8.66,4.43-31.38,19.31-65.6-14.29-8.66-4.43Z"/>
    <path class="cls-1" d="M562.85,345.35l2.67,40.02c-15.18-.81-14.31-38.92-2.67-40.02Z"/>
    <path class="cls-1" d="M546.86,457.47c-2.14,2.11-20.93,3.07-17.56-10.76,6.08-24.96,25.42,3.05,17.56,10.76Z"/>
    <path class="cls-1" d="M570.86,225.26l-10.62,61.35c-1.13-16.8-5.41-50.49,10.62-61.35Z"/>
    <path class="cls-1" d="M573.53,307.97c13.1,17.01-5.17,70.48-7.98,0,2.16.27,7.67-.41,7.98,0Z"/>
    <path class="cls-1" d="M744.35,19.75c-14.3,3.95-27.67,16.82-42.67,13.27,11.25-10.62,27.41-14.56,42.67-13.27Z"/>
    <polygon class="cls-1" points="634.87 302.68 640.25 315.97 625.55 318.59 634.87 302.68"/>
    <polygon class="cls-1" points="446.76 1239.52 448.09 1240.85 446.76 1242.19 446.76 1239.52"/>
  </g>
</svg>